<svg xmlns="http://www.w3.org/2000/svg" xmlns:xlink="http://www.w3.org/1999/xlink" width="500" zoomAndPan="magnify" viewBox="0 0 375 374.999991" height="500" preserveAspectRatio="xMidYMid meet" version="1.2"><defs><clipPath id="7b944f8a25"><path d="M 165.449219 174.300781 L 169.453125 174.300781 L 169.453125 193.050781 L 165.449219 193.050781 Z M 165.449219 174.300781 "/></clipPath><clipPath id="5e43c0f928"><path d="M 0.449219 0.300781 L 4.453125 0.300781 L 4.453125 19.050781 L 0.449219 19.050781 Z M 0.449219 0.300781 "/></clipPath><clipPath id="134d91f91a"><rect x="0" width="5" y="0" height="20"/></clipPath><clipPath id="2b84eb1950"><rect x="0" width="138" y="0" height="20"/></clipPath><clipPath id="4519d2fd4f"><path d="M 165.441406 185.574219 L 182.390625 185.574219 L 182.390625 191.679688 L 165.441406 191.679688 Z M 165.441406 185.574219 "/></clipPath><clipPath id="c98caa2789"><path d="M 0.441406 0.574219 L 17.390625 0.574219 L 17.390625 6.679688 L 0.441406 6.679688 Z M 0.441406 0.574219 "/></clipPath><clipPath id="cd8544a88e"><rect x="0" width="18" y="0" height="7"/></clipPath></defs><g id="f6ab4dbb49"><rect x="0" width="375" y="0" height="374.999991" style="fill:#ffffff;fill-opacity:1;stroke:none;"/><rect x="0" width="375" y="0" height="374.999991" style="fill:#ffffff;fill-opacity:1;stroke:none;"/><g style="fill:#000000;fill-opacity:1;"><g transform="translate(159.149687, 232.337534)"><path style="stroke:none" d="M 67.21875 -20.078125 C 67.21875 -16.296875 66.289062 -12.894531 64.4375 -9.875 C 62.582031 -6.851562 60.070312 -4.453125 56.90625 -2.671875 C 53.738281 -0.890625 50.226562 0 46.375 0 L 10.15625 0 L 10.15625 -77.484375 L 46.265625 -77.484375 C 49.898438 -77.484375 53.046875 -76.515625 55.703125 -74.578125 C 58.359375 -72.648438 60.394531 -70.175781 61.8125 -67.15625 C 63.238281 -64.144531 63.953125 -61.003906 63.953125 -57.734375 C 63.953125 -53.867188 62.96875 -50.28125 61 -46.96875 C 59.03125 -43.664062 56.300781 -41.25 52.8125 -39.71875 C 57.25 -38.40625 60.757812 -35.945312 63.34375 -32.34375 C 65.925781 -28.75 67.21875 -24.660156 67.21875 -20.078125 Z M 61.65625 -20.84375 C 61.65625 -23.601562 61.019531 -26.179688 59.75 -28.578125 C 58.476562 -30.984375 56.75 -32.953125 54.5625 -34.484375 C 52.375 -36.015625 49.898438 -36.78125 47.140625 -36.78125 L 15.71875 -36.78125 L 15.71875 -5.015625 L 46.375 -5.015625 C 49.21875 -5.015625 51.800781 -5.757812 54.125 -7.25 C 56.457031 -8.75 58.296875 -10.71875 59.640625 -13.15625 C 60.984375 -15.59375 61.65625 -18.15625 61.65625 -20.84375 Z M 15.71875 -72.453125 L 15.71875 -41.46875 L 44.09375 -41.46875 C 46.925781 -41.46875 49.414062 -42.210938 51.5625 -43.703125 C 53.707031 -45.191406 55.394531 -47.117188 56.625 -49.484375 C 57.863281 -51.847656 58.484375 -54.34375 58.484375 -56.96875 C 58.484375 -59.800781 57.898438 -62.378906 56.734375 -64.703125 C 55.578125 -67.035156 53.960938 -68.910156 51.890625 -70.328125 C 49.816406 -71.742188 47.429688 -72.453125 44.734375 -72.453125 Z M 15.71875 -72.453125 "/></g></g><g style="fill:#ffffff;fill-opacity:1;"><g transform="translate(133.789333, 222.438809)"><path style="stroke:none" d="M 10.15625 0 L 10.15625 -77.484375 L 60.5625 -77.484375 L 60.5625 -72.453125 L 15.71875 -72.453125 L 15.71875 -41.6875 L 53.796875 -41.6875 L 53.796875 -36.890625 L 15.71875 -36.890625 L 15.71875 0 Z M 10.15625 0 "/></g></g><g style="fill:#000000;fill-opacity:1;"><g transform="translate(136.368658, 217.785586)"><path style="stroke:none" d="M 10.15625 0 L 10.15625 -77.484375 L 60.5625 -77.484375 L 60.5625 -72.453125 L 15.71875 -72.453125 L 15.71875 -41.6875 L 53.796875 -41.6875 L 53.796875 -36.890625 L 15.71875 -36.890625 L 15.71875 0 Z M 10.15625 0 "/></g></g><g clip-rule="nonzero" clip-path="url(#7b944f8a25)"><g transform="matrix(1,0,0,1,165,174)"><g clip-path="url(#134d91f91a)"><g clip-rule="nonzero" clip-path="url(#5e43c0f928)"><path style=" stroke:none;fill-rule:nonzero;fill:#ffffff;fill-opacity:1;" d="M 0.449219 0.300781 L 4.453125 0.300781 L 4.453125 19.054688 L 0.449219 19.054688 Z M 0.449219 0.300781 "/></g></g></g></g><g transform="matrix(1,0,0,1,119,244)"><g clip-path="url(#2b84eb1950)"><g style="fill:#ffffff;fill-opacity:1;"><g transform="translate(1.025998, 15.911179)"><path style="stroke:none" d="M 1.359375 0 L 1.359375 -10.8125 L 8.453125 -10.8125 L 8.453125 -9.859375 L 2.421875 -9.859375 L 2.421875 -5.890625 L 7.5 -5.890625 L 7.5 -5 L 2.421875 -5 L 2.421875 0 Z M 1.359375 0 "/></g></g><g style="fill:#ffffff;fill-opacity:1;"><g transform="translate(11.195897, 15.911179)"><path style="stroke:none" d="M 1.359375 0 L 1.359375 -10.8125 L 5.921875 -10.8125 C 6.390625 -10.8125 6.816406 -10.710938 7.203125 -10.515625 C 7.585938 -10.328125 7.921875 -10.066406 8.203125 -9.734375 C 8.492188 -9.398438 8.71875 -9.03125 8.875 -8.625 C 9.03125 -8.226562 9.109375 -7.820312 9.109375 -7.40625 C 9.109375 -6.894531 9.007812 -6.410156 8.8125 -5.953125 C 8.613281 -5.492188 8.332031 -5.109375 7.96875 -4.796875 C 7.613281 -4.484375 7.195312 -4.273438 6.71875 -4.171875 L 9.359375 0 L 8.15625 0 L 5.609375 -3.984375 L 2.421875 -3.984375 L 2.421875 0 Z M 2.421875 -4.9375 L 5.953125 -4.9375 C 6.378906 -4.9375 6.75 -5.050781 7.0625 -5.28125 C 7.375 -5.507812 7.613281 -5.8125 7.78125 -6.1875 C 7.957031 -6.570312 8.046875 -6.976562 8.046875 -7.40625 C 8.046875 -7.84375 7.945312 -8.242188 7.75 -8.609375 C 7.550781 -8.984375 7.285156 -9.285156 6.953125 -9.515625 C 6.628906 -9.742188 6.265625 -9.859375 5.859375 -9.859375 L 2.421875 -9.859375 Z M 2.421875 -4.9375 "/></g></g><g style="fill:#ffffff;fill-opacity:1;"><g transform="translate(22.340071, 15.911179)"><path style="stroke:none" d="M 8.609375 -0.9375 L 8.609375 0 L 1.359375 0 L 1.359375 -10.8125 L 8.484375 -10.8125 L 8.484375 -9.859375 L 2.421875 -9.859375 L 2.421875 -5.96875 L 7.703125 -5.96875 L 7.703125 -5.0625 L 2.421875 -5.0625 L 2.421875 -0.9375 Z M 8.609375 -0.9375 "/></g></g><g style="fill:#ffffff;fill-opacity:1;"><g transform="translate(32.814439, 15.911179)"><path style="stroke:none" d="M 8.609375 -0.9375 L 8.609375 0 L 1.359375 0 L 1.359375 -10.8125 L 8.484375 -10.8125 L 8.484375 -9.859375 L 2.421875 -9.859375 L 2.421875 -5.96875 L 7.703125 -5.96875 L 7.703125 -5.0625 L 2.421875 -5.0625 L 2.421875 -0.9375 Z M 8.609375 -0.9375 "/></g></g><g style="fill:#ffffff;fill-opacity:1;"><g transform="translate(43.288806, 15.911179)"><path style="stroke:none" d="M 1.359375 0 L 1.359375 -10.8125 L 2.421875 -10.8125 L 2.421875 -0.9375 L 8.65625 -0.9375 L 8.65625 0 Z M 1.359375 0 "/></g></g><g style="fill:#ffffff;fill-opacity:1;"><g transform="translate(53.367371, 15.911179)"><path style="stroke:none" d="M 4.703125 -10.8125 L 5.59375 -10.8125 L 10.09375 0 L 8.96875 0 L 7.5625 -3.375 L 2.703125 -3.375 L 1.328125 0 L 0.1875 0 Z M 7.3125 -4.21875 L 5.140625 -9.5625 L 2.9375 -4.21875 Z M 7.3125 -4.21875 "/></g></g><g style="fill:#ffffff;fill-opacity:1;"><g transform="translate(64.861688, 15.911179)"><path style="stroke:none" d="M 2.421875 -8.84375 L 2.421875 0 L 1.359375 0 L 1.359375 -10.8125 L 2.234375 -10.8125 L 9.328125 -1.796875 L 9.328125 -10.796875 L 10.390625 -10.796875 L 10.390625 0 L 9.40625 0 Z M 2.421875 -8.84375 "/></g></g><g style="fill:#ffffff;fill-opacity:1;"><g transform="translate(77.817418, 15.911179)"><path style="stroke:none" d="M 0.640625 -5.484375 C 0.640625 -6.140625 0.753906 -6.785156 0.984375 -7.421875 C 1.210938 -8.054688 1.546875 -8.632812 1.984375 -9.15625 C 2.421875 -9.675781 2.957031 -10.085938 3.59375 -10.390625 C 4.226562 -10.703125 4.953125 -10.859375 5.765625 -10.859375 C 6.734375 -10.859375 7.554688 -10.640625 8.234375 -10.203125 C 8.921875 -9.765625 9.425781 -9.195312 9.75 -8.5 L 8.921875 -7.984375 C 8.679688 -8.460938 8.382812 -8.84375 8.03125 -9.125 C 7.675781 -9.40625 7.296875 -9.601562 6.890625 -9.71875 C 6.492188 -9.84375 6.097656 -9.90625 5.703125 -9.90625 C 5.054688 -9.90625 4.484375 -9.773438 3.984375 -9.515625 C 3.484375 -9.253906 3.0625 -8.910156 2.71875 -8.484375 C 2.382812 -8.054688 2.128906 -7.570312 1.953125 -7.03125 C 1.785156 -6.5 1.703125 -5.960938 1.703125 -5.421875 C 1.703125 -4.816406 1.800781 -4.238281 2 -3.6875 C 2.207031 -3.144531 2.492188 -2.660156 2.859375 -2.234375 C 3.222656 -1.816406 3.648438 -1.484375 4.140625 -1.234375 C 4.640625 -0.992188 5.175781 -0.875 5.75 -0.875 C 6.15625 -0.875 6.570312 -0.941406 7 -1.078125 C 7.425781 -1.222656 7.820312 -1.441406 8.1875 -1.734375 C 8.5625 -2.023438 8.859375 -2.40625 9.078125 -2.875 L 9.96875 -2.421875 C 9.75 -1.878906 9.40625 -1.421875 8.9375 -1.046875 C 8.46875 -0.671875 7.945312 -0.382812 7.375 -0.1875 C 6.800781 0 6.238281 0.09375 5.6875 0.09375 C 4.945312 0.09375 4.265625 -0.0664062 3.640625 -0.390625 C 3.023438 -0.710938 2.492188 -1.140625 2.046875 -1.671875 C 1.597656 -2.203125 1.25 -2.796875 1 -3.453125 C 0.757812 -4.117188 0.640625 -4.796875 0.640625 -5.484375 Z M 0.640625 -5.484375 "/></g></g><g style="fill:#ffffff;fill-opacity:1;"><g transform="translate(89.463955, 15.911179)"><path style="stroke:none" d="M 8.609375 -0.9375 L 8.609375 0 L 1.359375 0 L 1.359375 -10.8125 L 8.484375 -10.8125 L 8.484375 -9.859375 L 2.421875 -9.859375 L 2.421875 -5.96875 L 7.703125 -5.96875 L 7.703125 -5.0625 L 2.421875 -5.0625 L 2.421875 -0.9375 Z M 8.609375 -0.9375 "/></g></g><g style="fill:#ffffff;fill-opacity:1;"><g transform="translate(99.938322, 15.911179)"><path style="stroke:none" d="M 9.875 -10.8125 L 9.875 0 L 8.828125 0 L 8.828125 -5.046875 L 2.421875 -5.046875 L 2.421875 0 L 1.359375 0 L 1.359375 -10.8125 L 2.421875 -10.8125 L 2.421875 -6 L 8.828125 -6 L 8.828125 -10.8125 Z M 9.875 -10.8125 "/></g></g><g style="fill:#ffffff;fill-opacity:1;"><g transform="translate(112.376464, 15.911179)"><path style="stroke:none" d="M 5.75 0.078125 C 4.894531 0.078125 4.171875 -0.0703125 3.578125 -0.375 C 2.992188 -0.6875 2.53125 -1.097656 2.1875 -1.609375 C 1.84375 -2.117188 1.59375 -2.695312 1.4375 -3.34375 C 1.28125 -4 1.203125 -4.671875 1.203125 -5.359375 L 1.203125 -10.8125 L 2.25 -10.8125 L 2.25 -5.359375 C 2.25 -4.796875 2.304688 -4.242188 2.421875 -3.703125 C 2.546875 -3.171875 2.738281 -2.691406 3 -2.265625 C 3.257812 -1.835938 3.613281 -1.5 4.0625 -1.25 C 4.507812 -1 5.066406 -0.875 5.734375 -0.875 C 6.421875 -0.875 6.988281 -1.003906 7.4375 -1.265625 C 7.894531 -1.523438 8.253906 -1.867188 8.515625 -2.296875 C 8.773438 -2.722656 8.957031 -3.203125 9.0625 -3.734375 C 9.175781 -4.265625 9.234375 -4.804688 9.234375 -5.359375 L 9.234375 -10.8125 L 10.296875 -10.8125 L 10.296875 -5.359375 C 10.296875 -4.640625 10.210938 -3.945312 10.046875 -3.28125 C 9.890625 -2.625 9.628906 -2.046875 9.265625 -1.546875 C 8.910156 -1.054688 8.441406 -0.660156 7.859375 -0.359375 C 7.285156 -0.0664062 6.582031 0.078125 5.75 0.078125 Z M 5.75 0.078125 "/></g></g><g style="fill:#ffffff;fill-opacity:1;"><g transform="translate(125.073401, 15.911179)"><path style="stroke:none" d="M 9.484375 -2.78125 C 9.484375 -2.25 9.34375 -1.769531 9.0625 -1.34375 C 8.789062 -0.925781 8.425781 -0.597656 7.96875 -0.359375 C 7.507812 -0.117188 7.003906 0 6.453125 0 L 1.359375 0 L 1.359375 -10.8125 L 6.5625 -10.8125 C 7.0625 -10.8125 7.5 -10.675781 7.875 -10.40625 C 8.25 -10.132812 8.535156 -9.785156 8.734375 -9.359375 C 8.929688 -8.941406 9.03125 -8.503906 9.03125 -8.046875 C 9.03125 -7.515625 8.890625 -7.019531 8.609375 -6.5625 C 8.335938 -6.101562 7.957031 -5.765625 7.46875 -5.546875 C 8.09375 -5.359375 8.582031 -5.015625 8.9375 -4.515625 C 9.300781 -4.023438 9.484375 -3.445312 9.484375 -2.78125 Z M 8.421875 -2.96875 C 8.421875 -3.332031 8.335938 -3.664062 8.171875 -3.96875 C 8.003906 -4.28125 7.78125 -4.53125 7.5 -4.71875 C 7.226562 -4.914062 6.914062 -5.015625 6.5625 -5.015625 L 2.421875 -5.015625 L 2.421875 -0.921875 L 6.453125 -0.921875 C 6.816406 -0.921875 7.144531 -1.015625 7.4375 -1.203125 C 7.738281 -1.398438 7.976562 -1.65625 8.15625 -1.96875 C 8.332031 -2.28125 8.421875 -2.613281 8.421875 -2.96875 Z M 2.421875 -9.875 L 2.421875 -5.890625 L 6.140625 -5.890625 C 6.492188 -5.890625 6.804688 -5.984375 7.078125 -6.171875 C 7.347656 -6.359375 7.5625 -6.601562 7.71875 -6.90625 C 7.882812 -7.207031 7.96875 -7.535156 7.96875 -7.890625 C 7.96875 -8.253906 7.890625 -8.582031 7.734375 -8.875 C 7.585938 -9.175781 7.382812 -9.414062 7.125 -9.59375 C 6.863281 -9.78125 6.5625 -9.875 6.21875 -9.875 Z M 2.421875 -9.875 "/></g></g><g style="fill:#000000;fill-opacity:1;"><g transform="translate(1.386056, 15.261609)"><path style="stroke:none" d="M 1.359375 0 L 1.359375 -10.8125 L 8.453125 -10.8125 L 8.453125 -9.859375 L 2.421875 -9.859375 L 2.421875 -5.890625 L 7.5 -5.890625 L 7.5 -5 L 2.421875 -5 L 2.421875 0 Z M 1.359375 0 "/></g></g><g style="fill:#000000;fill-opacity:1;"><g transform="translate(11.555955, 15.261609)"><path style="stroke:none" d="M 1.359375 0 L 1.359375 -10.8125 L 5.921875 -10.8125 C 6.390625 -10.8125 6.816406 -10.710938 7.203125 -10.515625 C 7.585938 -10.328125 7.921875 -10.066406 8.203125 -9.734375 C 8.492188 -9.398438 8.71875 -9.03125 8.875 -8.625 C 9.03125 -8.226562 9.109375 -7.820312 9.109375 -7.40625 C 9.109375 -6.894531 9.007812 -6.410156 8.8125 -5.953125 C 8.613281 -5.492188 8.332031 -5.109375 7.96875 -4.796875 C 7.613281 -4.484375 7.195312 -4.273438 6.71875 -4.171875 L 9.359375 0 L 8.15625 0 L 5.609375 -3.984375 L 2.421875 -3.984375 L 2.421875 0 Z M 2.421875 -4.9375 L 5.953125 -4.9375 C 6.378906 -4.9375 6.75 -5.050781 7.0625 -5.28125 C 7.375 -5.507812 7.613281 -5.8125 7.78125 -6.1875 C 7.957031 -6.570312 8.046875 -6.976562 8.046875 -7.40625 C 8.046875 -7.84375 7.945312 -8.242188 7.75 -8.609375 C 7.550781 -8.984375 7.285156 -9.285156 6.953125 -9.515625 C 6.628906 -9.742188 6.265625 -9.859375 5.859375 -9.859375 L 2.421875 -9.859375 Z M 2.421875 -4.9375 "/></g></g><g style="fill:#000000;fill-opacity:1;"><g transform="translate(22.700129, 15.261609)"><path style="stroke:none" d="M 8.609375 -0.9375 L 8.609375 0 L 1.359375 0 L 1.359375 -10.8125 L 8.484375 -10.8125 L 8.484375 -9.859375 L 2.421875 -9.859375 L 2.421875 -5.96875 L 7.703125 -5.96875 L 7.703125 -5.0625 L 2.421875 -5.0625 L 2.421875 -0.9375 Z M 8.609375 -0.9375 "/></g></g><g style="fill:#000000;fill-opacity:1;"><g transform="translate(33.174497, 15.261609)"><path style="stroke:none" d="M 8.609375 -0.9375 L 8.609375 0 L 1.359375 0 L 1.359375 -10.8125 L 8.484375 -10.8125 L 8.484375 -9.859375 L 2.421875 -9.859375 L 2.421875 -5.96875 L 7.703125 -5.96875 L 7.703125 -5.0625 L 2.421875 -5.0625 L 2.421875 -0.9375 Z M 8.609375 -0.9375 "/></g></g><g style="fill:#000000;fill-opacity:1;"><g transform="translate(43.648864, 15.261609)"><path style="stroke:none" d="M 1.359375 0 L 1.359375 -10.8125 L 2.421875 -10.8125 L 2.421875 -0.9375 L 8.65625 -0.9375 L 8.65625 0 Z M 1.359375 0 "/></g></g><g style="fill:#000000;fill-opacity:1;"><g transform="translate(53.727429, 15.261609)"><path style="stroke:none" d="M 4.703125 -10.8125 L 5.59375 -10.8125 L 10.09375 0 L 8.96875 0 L 7.5625 -3.375 L 2.703125 -3.375 L 1.328125 0 L 0.1875 0 Z M 7.3125 -4.21875 L 5.140625 -9.5625 L 2.9375 -4.21875 Z M 7.3125 -4.21875 "/></g></g><g style="fill:#000000;fill-opacity:1;"><g transform="translate(65.221746, 15.261609)"><path style="stroke:none" d="M 2.421875 -8.84375 L 2.421875 0 L 1.359375 0 L 1.359375 -10.8125 L 2.234375 -10.8125 L 9.328125 -1.796875 L 9.328125 -10.796875 L 10.390625 -10.796875 L 10.390625 0 L 9.40625 0 Z M 2.421875 -8.84375 "/></g></g><g style="fill:#000000;fill-opacity:1;"><g transform="translate(78.177476, 15.261609)"><path style="stroke:none" d="M 0.640625 -5.484375 C 0.640625 -6.140625 0.753906 -6.785156 0.984375 -7.421875 C 1.210938 -8.054688 1.546875 -8.632812 1.984375 -9.15625 C 2.421875 -9.675781 2.957031 -10.085938 3.59375 -10.390625 C 4.226562 -10.703125 4.953125 -10.859375 5.765625 -10.859375 C 6.734375 -10.859375 7.554688 -10.640625 8.234375 -10.203125 C 8.921875 -9.765625 9.425781 -9.195312 9.75 -8.5 L 8.921875 -7.984375 C 8.679688 -8.460938 8.382812 -8.84375 8.03125 -9.125 C 7.675781 -9.40625 7.296875 -9.601562 6.890625 -9.71875 C 6.492188 -9.84375 6.097656 -9.90625 5.703125 -9.90625 C 5.054688 -9.90625 4.484375 -9.773438 3.984375 -9.515625 C 3.484375 -9.253906 3.0625 -8.910156 2.71875 -8.484375 C 2.382812 -8.054688 2.128906 -7.570312 1.953125 -7.03125 C 1.785156 -6.5 1.703125 -5.960938 1.703125 -5.421875 C 1.703125 -4.816406 1.800781 -4.238281 2 -3.6875 C 2.207031 -3.144531 2.492188 -2.660156 2.859375 -2.234375 C 3.222656 -1.816406 3.648438 -1.484375 4.140625 -1.234375 C 4.640625 -0.992188 5.175781 -0.875 5.75 -0.875 C 6.15625 -0.875 6.570312 -0.941406 7 -1.078125 C 7.425781 -1.222656 7.820312 -1.441406 8.1875 -1.734375 C 8.5625 -2.023438 8.859375 -2.40625 9.078125 -2.875 L 9.96875 -2.421875 C 9.75 -1.878906 9.40625 -1.421875 8.9375 -1.046875 C 8.46875 -0.671875 7.945312 -0.382812 7.375 -0.1875 C 6.800781 0 6.238281 0.09375 5.6875 0.09375 C 4.945312 0.09375 4.265625 -0.0664062 3.640625 -0.390625 C 3.023438 -0.710938 2.492188 -1.140625 2.046875 -1.671875 C 1.597656 -2.203125 1.25 -2.796875 1 -3.453125 C 0.757812 -4.117188 0.640625 -4.796875 0.640625 -5.484375 Z M 0.640625 -5.484375 "/></g></g><g style="fill:#000000;fill-opacity:1;"><g transform="translate(89.824012, 15.261609)"><path style="stroke:none" d="M 8.609375 -0.9375 L 8.609375 0 L 1.359375 0 L 1.359375 -10.8125 L 8.484375 -10.8125 L 8.484375 -9.859375 L 2.421875 -9.859375 L 2.421875 -5.96875 L 7.703125 -5.96875 L 7.703125 -5.0625 L 2.421875 -5.0625 L 2.421875 -0.9375 Z M 8.609375 -0.9375 "/></g></g><g style="fill:#000000;fill-opacity:1;"><g transform="translate(100.29838, 15.261609)"><path style="stroke:none" d="M 9.875 -10.8125 L 9.875 0 L 8.828125 0 L 8.828125 -5.046875 L 2.421875 -5.046875 L 2.421875 0 L 1.359375 0 L 1.359375 -10.8125 L 2.421875 -10.8125 L 2.421875 -6 L 8.828125 -6 L 8.828125 -10.8125 Z M 9.875 -10.8125 "/></g></g><g style="fill:#000000;fill-opacity:1;"><g transform="translate(112.736522, 15.261609)"><path style="stroke:none" d="M 5.75 0.078125 C 4.894531 0.078125 4.171875 -0.0703125 3.578125 -0.375 C 2.992188 -0.6875 2.53125 -1.097656 2.1875 -1.609375 C 1.84375 -2.117188 1.59375 -2.695312 1.4375 -3.34375 C 1.28125 -4 1.203125 -4.671875 1.203125 -5.359375 L 1.203125 -10.8125 L 2.25 -10.8125 L 2.25 -5.359375 C 2.25 -4.796875 2.304688 -4.242188 2.421875 -3.703125 C 2.546875 -3.171875 2.738281 -2.691406 3 -2.265625 C 3.257812 -1.835938 3.613281 -1.5 4.0625 -1.25 C 4.507812 -1 5.066406 -0.875 5.734375 -0.875 C 6.421875 -0.875 6.988281 -1.003906 7.4375 -1.265625 C 7.894531 -1.523438 8.253906 -1.867188 8.515625 -2.296875 C 8.773438 -2.722656 8.957031 -3.203125 9.0625 -3.734375 C 9.175781 -4.265625 9.234375 -4.804688 9.234375 -5.359375 L 9.234375 -10.8125 L 10.296875 -10.8125 L 10.296875 -5.359375 C 10.296875 -4.640625 10.210938 -3.945312 10.046875 -3.28125 C 9.890625 -2.625 9.628906 -2.046875 9.265625 -1.546875 C 8.910156 -1.054688 8.441406 -0.660156 7.859375 -0.359375 C 7.285156 -0.0664062 6.582031 0.078125 5.75 0.078125 Z M 5.75 0.078125 "/></g></g><g style="fill:#000000;fill-opacity:1;"><g transform="translate(125.433458, 15.261609)"><path style="stroke:none" d="M 9.484375 -2.78125 C 9.484375 -2.25 9.34375 -1.769531 9.0625 -1.34375 C 8.789062 -0.925781 8.425781 -0.597656 7.96875 -0.359375 C 7.507812 -0.117188 7.003906 0 6.453125 0 L 1.359375 0 L 1.359375 -10.8125 L 6.5625 -10.8125 C 7.0625 -10.8125 7.5 -10.675781 7.875 -10.40625 C 8.25 -10.132812 8.535156 -9.785156 8.734375 -9.359375 C 8.929688 -8.941406 9.03125 -8.503906 9.03125 -8.046875 C 9.03125 -7.515625 8.890625 -7.019531 8.609375 -6.5625 C 8.335938 -6.101562 7.957031 -5.765625 7.46875 -5.546875 C 8.09375 -5.359375 8.582031 -5.015625 8.9375 -4.515625 C 9.300781 -4.023438 9.484375 -3.445312 9.484375 -2.78125 Z M 8.421875 -2.96875 C 8.421875 -3.332031 8.335938 -3.664062 8.171875 -3.96875 C 8.003906 -4.28125 7.78125 -4.53125 7.5 -4.71875 C 7.226562 -4.914062 6.914062 -5.015625 6.5625 -5.015625 L 2.421875 -5.015625 L 2.421875 -0.921875 L 6.453125 -0.921875 C 6.816406 -0.921875 7.144531 -1.015625 7.4375 -1.203125 C 7.738281 -1.398438 7.976562 -1.65625 8.15625 -1.96875 C 8.332031 -2.28125 8.421875 -2.613281 8.421875 -2.96875 Z M 2.421875 -9.875 L 2.421875 -5.890625 L 6.140625 -5.890625 C 6.492188 -5.890625 6.804688 -5.984375 7.078125 -6.171875 C 7.347656 -6.359375 7.5625 -6.601562 7.71875 -6.90625 C 7.882812 -7.207031 7.96875 -7.535156 7.96875 -7.890625 C 7.96875 -8.253906 7.890625 -8.582031 7.734375 -8.875 C 7.585938 -9.175781 7.382812 -9.414062 7.125 -9.59375 C 6.863281 -9.78125 6.5625 -9.875 6.21875 -9.875 Z M 2.421875 -9.875 "/></g></g></g></g><g clip-rule="nonzero" clip-path="url(#4519d2fd4f)"><g transform="matrix(1,0,0,1,165,185)"><g clip-path="url(#cd8544a88e)"><g clip-rule="nonzero" clip-path="url(#c98caa2789)"><path style=" stroke:none;fill-rule:nonzero;fill:#ffffff;fill-opacity:1;" d="M 17.390625 0.574219 L 17.390625 6.679688 L 0.4375 6.679688 L 0.4375 0.574219 Z M 17.390625 0.574219 "/></g></g></g></g></g></svg>